:SAMPLES-PER-SECOND 30
:FULLY-SPECIFIED
:DEGREES
641
root  -11.5163 35.4604 2.59422 -21.002 -71.4065 19.9601
RightUpLeg  -31.5063 4.81289 -7.45388
RightLeg  64.7517 -14.7408 -31.0066
RightFoot  -9.89776 -0.281146 16.2286
RightToes  6.35927e-011 1.30204e-014 -6.03759e-014
Spine  34.8111 -2.66425 -1.23463
Spine1  9.06673 -3.29618 0.142439
HEad  -51.5199 3.74944 -6.83921
LeftShoulder1  0.823977 -0.831334 -11.9732
LeftArm  -7.46295 33.6022 -38.7362
LeftForeArm  -144.726 -77.8072 -141.591
LeftHand  -1.99735 0.628333 46.804
RightShoulder  0.507135 -1.14751 14.8547
RightArm  -22.0416 -46.7668 40.8759
RightForeArm  148.765 80.9289 110.452
RightHand  -2.26311 0.825394 -40.5468
LeftUpLeg  -33.9678 -1.81781 -6.95899
LeftLeg  58.7604 2.60744 5.12316
LeftFoot  -7.69669 0.571937 -15.7791
LeftToes  7.40077e-010 7.2695e-011 -6.03601e-011
642
root  -10.9076 35.6545 3.06879 -20.4417 -75.2492 22.1783
RightUpLeg  -38.0423 -0.590401 -8.12489
RightLeg  64.0412 -10.6465 -22.9345
RightFoot  -3.14377 -1.17626 16.2521
RightToes  6.35927e-011 1.30204e-014 -6.03759e-014
Spine  37.0819 -1.82001 -0.760208
Spine1  6.94603 -1.56787 -1.18928
HEad  -51.3383 3.82651 -5.88779
LeftShoulder1  0.703929 0.27576 -14.8823
LeftArm  -21.4065 36.0542 -41.1857
LeftForeArm  123.123 -81.7734 -77.9982
LeftHand  0.101743 5.85365 40.3
RightShoulder  0.666531 -0.44734 15.0877
RightArm  -27.8901 -45.1742 39.1964
RightForeArm  59.5472 76.0416 40.1037
RightHand  -1.23325 -1.80822 -39.0444
LeftUpLeg  -33.5179 -3.56434 -7.82628
LeftLeg  53.3342 7.80667 11.6885
LeftFoot  -12.411 -0.0339845 -10.3432
LeftToes  7.40077e-010 7.2695e-011 -6.03601e-011
643
root  -10.3457 35.7026 3.41499 -20.7433 -78.3759 23.8584
RightUpLeg  -45.1233 -7.70408 -7.40724
RightLeg  65.8262 -6.44168 -15.9688
RightFoot  8.34112 -2.29011 13.605
RightToes  6.35927e-011 1.30204e-014 -6.03759e-014
Spine  39.0944 -0.672999 -0.35256
Spine1  5.764 0.590962 -2.65124
HEad  -52.0111 0.261162 -3.58787
LeftShoulder1  0.751161 0.275384 -16.513
LeftArm  -35.0448 36.3678 -43.8568
LeftForeArm  64.4198 -77.0077 -44.1807
LeftHand  1.02023 9.8595 25.6311
RightShoulder  0.855354 0.245357 16.2011
RightArm  -31.4338 -45.305 38.7184
RightForeArm  32.6836 68.7169 25.8173
RightHand  -0.786011 -3.32032 -42.7444
LeftUpLeg  -34.8114 -4.11911 -7.60374
LeftLeg  52.4285 11.5417 16.1233
LeftFoot  -14.0865 -0.111162 -7.91806
LeftToes  7.40077e-010 7.2695e-011 -6.03601e-011
644
root  -9.93631 35.6634 3.6647 -16.6172 -79.206 20.0275
RightUpLeg  -50.3391 -13.6635 -5.89334
RightLeg  68.9617 -4.516 -13.602
RightFoot  14.7247 -2.21645 9.877
RightToes  6.35927e-011 1.30204e-014 -6.03759e-014
Spine  39.6099 -0.622354 0.7137
Spine1  6.73422 1.45715 -3.55156
HEad  -52.756 -3.1881 -1.77029
LeftShoulder1  0.927674 -0.547895 -16.1482
LeftArm  -35.9633 35.7468 -44.9266
LeftForeArm  44.8642 -72.8646 -32.6865
LeftHand  1.67154 14.7199 20.4551
RightShoulder  0.931149 0.398016 17.3477
RightArm  -29.088 -46.7824 39.9605
RightForeArm  31.6646 69.4462 28.2045
RightHand  -0.531987 -4.06345 -45.2887
LeftUpLeg  -35.8433 -7.10418 -6.59717
LeftLeg  52.5953 13.3736 18.4591
LeftFoot  -13.0599 -0.0471187 -8.43299
LeftToes  7.40077e-010 7.2695e-011 -6.03601e-011
645
root  -9.71191 35.6936 3.89796 -7.25055 -80.5644 10.0439
RightUpLeg  -51.9532 -13.8349 -3.90826
RightLeg  72.0599 -3.67483 -13.4872
RightFoot  12.0671 -1.60895 8.18428
RightToes  6.35927e-011 1.30204e-014 -6.03759e-014
Spine  39.4971 -1.03507 2.16801
Spine1  8.41012 1.70965 -4.3274
HEad  -52.4761 -3.82098 -1.02325
LeftShoulder1  0.959036 -0.867189 -15.0785
LeftArm  -22.2123 37.6552 -43.9364
LeftForeArm  56.7765 -74.2049 -35.0976
LeftHand  1.41036 13.1801 20.6221
RightShoulder  0.925986 0.401438 17.1791
RightArm  -19.1269 -47.5875 41.6158
RightForeArm  55.9307 75.6214 40.4315
RightHand  -0.820944 -3.08445 -40.0025
LeftUpLeg  -35.2347 -11.2084 -4.51863
LeftLeg  52.7089 16.2432 21.9698
LeftFoot  -12.2791 -0.00367536 -9.33542
LeftToes  7.40077e-010 7.2695e-011 -6.03601e-011
646
root  -9.6356 35.8048 4.0296 3.76184 -83.7384 -2.33112
RightUpLeg  -49.8592 -7.10688 -2.22165
RightLeg  74.0277 -2.66073 -11.5383
RightFoot  8.95962 -1.6447 9.4882
RightToes  6.35927e-011 1.30204e-014 -6.03759e-014
Spine  39.7759 -0.486149 2.30331
Spine1  9.05727 2.64306 -5.37626
HEad  -51.1084 -3.12864 -1.01397
LeftShoulder1  0.919471 -0.794218 -14.4945
LeftArm  -3.8455 41.3944 -42.2211
LeftForeArm  113.202 -81.0241 -65.7647
LeftHand  -0.357955 3.49828 21.2762
RightShoulder  0.954143 0.734588 15.8636
RightArm  -5.91458 -46.8333 42.7306
RightForeArm  96.7888 80.2319 59.0227
RightHand  -1.28498 -0.898707 -32.9167
LeftUpLeg  -33.9661 -12.8974 -2.60725
LeftLeg  54.454 19.6043 27.2579
LeftFoot  -11.9025 0.0201845 -8.99273
LeftToes  7.40077e-010 7.2695e-011 -6.03601e-011
